<?xml version="1.0" encoding="UTF-8"?>
<svg width="23px" height="65px" viewBox="0 0 23 65" version="1.1" xmlns="http://www.w3.org/2000/svg" xmlns:xlink="http://www.w3.org/1999/xlink">
    <!-- Generator: Sketch 49.1 (51147) - http://www.bohemiancoding.com/sketch -->
    <title>Group 4</title>
    <desc>Created with Sketch.</desc>
    <defs>
        <filter x="-4.8%" y="-3.2%" width="119.0%" height="106.3%" filterUnits="objectBoundingBox" id="filter-1">
            <feOffset dx="1" dy="0" in="SourceAlpha" result="shadowOffsetOuter1"></feOffset>
            <feGaussianBlur stdDeviation="0.5" in="shadowOffsetOuter1" result="shadowBlurOuter1"></feGaussianBlur>
            <feColorMatrix values="0 0 0 0 0   0 0 0 0 0   0 0 0 0 0  0 0 0 0.5 0" type="matrix" in="shadowBlurOuter1" result="shadowMatrixOuter1"></feColorMatrix>
            <feMerge>
                <feMergeNode in="shadowMatrixOuter1"></feMergeNode>
                <feMergeNode in="SourceGraphic"></feMergeNode>
            </feMerge>
        </filter>
    </defs>
    <g id="Page-1" stroke="none" stroke-width="1" fill="none" fill-rule="evenodd">
        <g id="Group-13" transform="translate(-56.000000, 0.000000)">
            <g id="Group-4" filter="url(#filter-1)" transform="translate(56.000000, 1.000000)">
                <path d="M10.3250366,20.3469388 L10.3250366,62.3469388" id="Line" stroke="#FE2F00" stroke-linecap="square"></path>
                <g id="emoji_line-(58)" fill="#FE2F00" fill-rule="nonzero">
                    <path d="M20.3921569,3.92514347 L20.2285672,4.62214626 C18.9888358,4.06998599 18.3091822,2.72113153 18.6029756,1.39596383 C18.6068399,1.37535006 18.6145686,1.35576699 18.619721,1.3354109 L19.3049942,1.49594057 L19.3011298,1.50946834 C19.0872674,2.46776493 19.5318694,3.45217133 20.3921569,3.92514347 Z M4.27793268,9.40505415 L4.27793268,7.47251405 L6.46771533,7.47251405 L6.46771533,9.40505415 L4.27793268,9.40505415 Z M4.42477691,4.98958654 L8.12035719,6.50160591 L7.82795681,7.21703225 L4.13237653,5.70501288 L4.42477691,4.98958654 Z M13.5523063,9.40505415 L13.5523063,7.47251405 L15.742089,7.47251405 L15.742089,9.40505415 L13.5523063,9.40505415 Z M14.6781122,4.58916425 L14.8417019,3.89203261 C16.0817384,4.44402936 16.7618866,5.79285049 16.4685816,7.11834387 C16.4634291,7.13895764 16.4569886,7.15841186 16.4518362,7.1788968 L15.766563,7.0182383 L15.7704273,7.00535469 C15.8634899,6.60642579 15.83979,6.18913623 15.7021576,5.80331476 L12.1882005,7.21368253 L11.8958001,6.51113978 L15.3247422,5.13478473 C15.145214,4.91406171 14.9258766,4.7289868 14.6781122,4.58916425 Z M17.8970927,7.50317702 C17.8956267,7.50763761 17.8947604,7.5122734 17.8945165,7.51696247 L17.2092433,7.35630397 C17.2131077,7.3356902 17.2156839,7.31520528 17.2208363,7.2944627 C17.5465108,5.97646424 18.7551527,5.07018212 20.1113494,5.12705457 L19.9477598,5.82418619 C19.6778995,5.83912977 19.4127859,5.90153963 19.1645905,6.00855053 C21.1859404,10.6530423 19.4157329,16.0756877 15.0436241,18.6322339 C10.6715153,21.1887802 5.07870253,20.0715861 2.02379842,16.0314546 C-1.03110568,11.9913231 -0.583023273,6.30457625 3.06691485,2.79295437 C6.71685298,-0.718667515 12.4155911,-0.945804349 16.3333303,2.26418967 C16.7562899,1.96222436 17.0551994,1.51688554 17.1744645,1.01100185 C17.1757526,1.00649259 17.1757526,1.00185448 17.1770407,0.997216377 L17.8623138,1.15787488 C17.8584495,1.17848865 17.8558733,1.1991024 17.8507209,1.21971617 C17.5247806,2.53753856 16.31631,3.44369219 14.9602078,3.3871243 L15.1237974,2.69012151 C15.1482714,2.68870432 15.1727455,2.68522575 15.1972195,2.68316436 C11.5638686,0.10188385 6.58609974,0.583681217 3.51502053,3.81388234 C0.443941322,7.04408346 0.213114156,12.0407552 2.97329813,15.5404441 C5.73348211,19.040133 10.6456224,19.9789857 14.501475,17.7438135 C18.3573277,15.5086413 19.9847709,10.7789034 18.3208801,6.64371202 C18.115689,6.89396804 17.9707001,7.18801387 17.8970927,7.50317702 Z M12.1624384,12.3690553 C11.9078003,11.41711 11.0454805,10.7550403 10.060247,10.7550403 C9.07501347,10.7550403 8.21269368,11.41711 7.95805565,12.3690553 L7.24186791,12.3690553 C7.48081218,11.0265146 8.64791961,10.048629 10.0112989,10.048629 C11.3746782,10.048629 12.5417857,11.0265146 12.7807299,12.3690553 L12.1624384,12.3690553 Z" id="Shape"></path>
                </g>
            </g>
        </g>
    </g>
</svg>