<?xml version="1.0" encoding="UTF-8"?>
<svg width="17px" height="51px" viewBox="0 0 17 51" version="1.1" xmlns="http://www.w3.org/2000/svg" xmlns:xlink="http://www.w3.org/1999/xlink">
    <!-- Generator: Sketch 49.3 (51167) - http://www.bohemiancoding.com/sketch -->
    <title>Group 4</title>
    <desc>Created with Sketch.</desc>
    <defs></defs>
    <g id="Page-1" stroke="none" stroke-width="1" fill="none" fill-rule="evenodd">
        <g id="Group-4">
            <path d="M8.35836296,16.4713314 L8.35836296,50.4713314" id="Line" stroke="#FE2F00" stroke-linecap="square"></path>
            <g id="emoji_line-(58)" fill="#FE2F00" fill-rule="nonzero">
                <path d="M16.5079365,3.1774971 L16.3755068,3.74173745 C15.3719147,3.29475056 14.8217189,2.20282076 15.0595517,1.13006596 C15.0626799,1.11337862 15.0689365,1.09752566 15.0731075,1.08104692 L15.6278524,1.21099951 L15.6247242,1.22195056 C15.4515974,1.99771447 15.8115133,2.79461488 16.5079365,3.1774971 Z M3.46308836,7.61361527 L3.46308836,6.04917804 L5.23576956,6.04917804 L5.23576956,7.61361527 L3.46308836,7.61361527 Z M3.58196226,4.0391891 L6.57362248,5.26320478 L6.33691742,5.84235944 L3.34525719,4.61834376 L3.58196226,4.0391891 Z M10.9709146,7.61361527 L10.9709146,6.04917804 L12.7435958,6.04917804 L12.7435958,7.61361527 L10.9709146,7.61361527 Z M11.8822813,3.71503772 L12.014711,3.15069307 C13.0185502,3.59754758 13.5691463,4.6894504 13.3317089,5.76246885 C13.3275379,5.77915619 13.3223241,5.79490484 13.3181531,5.81148789 L12.7634082,5.68143101 L12.7665364,5.67100141 C12.8418728,5.34805897 12.8226871,5.01025314 12.7112705,4.69792147 L9.86663851,5.83964776 L9.62993343,5.27092268 L12.4057436,4.15673049 C12.2604114,3.97804995 12.0828525,3.82822741 11.8822813,3.71503772 Z M14.4881227,6.07400045 C14.4869359,6.07761139 14.4862346,6.08136418 14.4860372,6.0851601 L13.9312922,5.95510322 C13.9344205,5.93841588 13.936506,5.92183285 13.940677,5.90504124 C14.2043183,4.8380901 15.1827427,4.10443315 16.2806162,4.15047275 L16.1481865,4.71481739 C15.9297281,4.72691458 15.7151124,4.77743684 15.5141923,4.86406471 C17.1505232,8.6238914 15.7174981,13.0136519 12.1781719,15.083237 C8.6388457,17.152822 4.11133062,16.2484269 1.63831301,12.9778442 C-0.834704601,9.70726159 -0.471971221,5.10370459 2.4827406,2.26096306 C5.43745241,-0.581778465 10.0507166,-0.76565114 13.2222198,1.83291544 C13.5646156,1.58846734 13.80659,1.22795496 13.9031379,0.818430066 C13.9041806,0.814779714 13.9041806,0.811025057 13.9052234,0.8072704 L14.4599683,0.937327281 C14.4568401,0.954014618 14.4547546,0.97070194 14.4505836,0.987389278 C14.1867271,2.05419789 13.2084414,2.78775082 12.1106444,2.74195777 L12.2430741,2.17771741 C12.2628864,2.17657017 12.2826987,2.17375418 12.302511,2.17208544 C9.36122695,0.0824774021 5.33160455,0.472503843 2.84549281,3.08742856 C0.35938107,5.70235328 0.172520983,9.74727805 2.40695563,12.5803595 C4.64139028,15.413441 8.61788476,16.1734646 11.7392893,14.3640395 C14.8606938,12.5546144 16.1781479,8.72577895 14.8311886,5.37824307 C14.6650816,5.58083127 14.5477096,5.81886837 14.4881227,6.07400045 Z M9.84578344,10.0130448 C9.63964789,9.24242236 8.94157949,8.70646123 8.14400948,8.70646123 C7.34643948,8.70646123 6.64837107,9.24242236 6.44223553,10.0130448 L5.86246449,10.0130448 C6.05589558,8.92622612 7.00069683,8.13460442 8.10438484,8.13460442 C9.20807285,8.13460442 10.1528741,8.92622612 10.3463052,10.0130448 L9.84578344,10.0130448 Z" id="Shape"></path>
            </g>
        </g>
    </g>
</svg>