<?xml version="1.0" encoding="UTF-8"?>
<svg width="16px" height="52px" viewBox="0 0 16 52" version="1.1" xmlns="http://www.w3.org/2000/svg" xmlns:xlink="http://www.w3.org/1999/xlink">
    <!-- Generator: Sketch 49.3 (51167) - http://www.bohemiancoding.com/sketch -->
    <title>Group 4</title>
    <desc>Created with Sketch.</desc>
    <defs></defs>
    <g id="Page-1" stroke="none" stroke-width="1" fill="none" fill-rule="evenodd">
        <g id="Group-4">
            <g id="emoji_line-(43)-(1)" fill="#9300E9" fill-rule="nonzero">
                <path d="M8,16.4516129 C3.581722,16.4516129 5.41083001e-16,12.7687939 0,8.22580645 C-5.41083001e-16,3.68281899 3.581722,8.34533257e-16 8,0 C12.418278,-8.34533257e-16 16,3.68281899 16,8.22580645 C16,10.407426 15.1571453,12.499692 13.6568542,14.04233 C12.1565632,15.5849679 10.1217319,16.4516129 8,16.4516129 Z M8,0.843702395 C5.09617088,0.843659469 2.47824827,2.64222416 1.36697205,5.40072399 C0.255695827,8.15922382 0.869914307,11.3344158 2.92321681,13.4457048 C4.97651931,15.5569937 8.06454031,16.1885947 10.7473326,15.0459914 C13.4301249,13.9033882 15.1793548,11.2115985 15.1793548,8.22580645 C15.1792978,4.14884869 11.9650413,0.843819631 8,0.843702395 Z M12.3870968,7.53590011 L12.3870968,6.68678461 L10.2193548,6.68678461 L10.2193548,5.94380853 L14.1419355,5.94380853 L14.1419355,7.53590011 L12.3870968,7.53590011 Z M10.2183226,3.28957961 L10.7045161,3.28957961 C10.9042514,4.06292765 11.5790821,4.60589507 12.3571613,4.61929449 C12.5804702,4.61923165 12.8014144,4.57227861 13.0064516,4.48131322 L13.0064516,5.1075359 C12.8082856,5.1692058 12.6023981,5.20067454 12.3953548,5.2009386 C11.323871,5.20083247 10.4299355,4.38132986 10.2183226,3.28957961 Z M10.6322581,10.2955255 L7.63870967,10.2955255 L7.63870967,9.55254943 L10.6322581,9.55254943 L10.6322581,10.2955255 Z M4.23225806,6.68678461 L2.06451612,6.68678461 L2.06451612,5.94380853 L5.98709678,5.94380853 L5.98709678,7.53590011 L4.23225806,7.53590011 L4.23225806,6.68678461 Z M3.61290322,5.1944641 C3.40319598,5.19430999 3.1946033,5.16310309 2.99354839,5.10180438 L2.99354839,4.47908429 C3.20164686,4.5694283 3.42520964,4.61608856 3.65109678,4.61632258 C4.43277012,4.60811722 5.11516289,4.06989421 5.32541936,3.29573569 L5.81780645,3.29573569 C5.61466291,4.38675178 4.69315315,5.18029987 3.61290322,5.1944641 Z" id="Shape"></path>
            </g>
            <path d="M8,16.4516129 L8,51" id="Line" stroke="#9300E9" stroke-linecap="square"></path>
        </g>
    </g>
</svg>