<?xml version="1.0" encoding="UTF-8"?>
<svg width="24px" height="67px" viewBox="0 0 24 67" version="1.1" xmlns="http://www.w3.org/2000/svg" xmlns:xlink="http://www.w3.org/1999/xlink">
    <!-- Generator: Sketch 49.1 (51147) - http://www.bohemiancoding.com/sketch -->
    <title>Group 4</title>
    <desc>Created with Sketch.</desc>
    <defs>
        <filter x="-15.0%" y="-4.8%" width="130.0%" height="111.3%" filterUnits="objectBoundingBox" id="filter-1">
            <feOffset dx="0" dy="0" in="SourceAlpha" result="shadowOffsetOuter1"></feOffset>
            <feGaussianBlur stdDeviation="1" in="shadowOffsetOuter1" result="shadowBlurOuter1"></feGaussianBlur>
            <feColorMatrix values="0 0 0 0 0   0 0 0 0 0   0 0 0 0 0  0 0 0 0.5 0" type="matrix" in="shadowBlurOuter1" result="shadowMatrixOuter1"></feColorMatrix>
            <feMerge>
                <feMergeNode in="shadowMatrixOuter1"></feMergeNode>
                <feMergeNode in="SourceGraphic"></feMergeNode>
            </feMerge>
        </filter>
    </defs>
    <g id="Page-1" stroke="none" stroke-width="1" fill="none" fill-rule="evenodd">
        <g id="Group-13" transform="translate(-298.000000, 1.000000)">
            <g id="Group-4" filter="url(#filter-1)" transform="translate(300.000000, 1.000000)">
                <g id="emoji_line-(43)-(1)" fill="#9300E9" fill-rule="nonzero">
                    <path d="M10,20 C4.4771525,20 6.76353751e-16,15.5228475 0,10 C-6.76353751e-16,4.4771525 4.4771525,1.01453063e-15 10,0 C15.5228475,-1.01453063e-15 20,4.4771525 20,10 C20,12.6521649 18.9464316,15.195704 17.0710678,17.0710678 C15.195704,18.9464316 12.6521649,20 10,20 Z M10,1.02567742 C6.3702136,1.02562524 3.09781034,3.21211565 1.70871506,6.56558603 C0.319619784,9.91905641 1.08739288,13.7790937 3.65402101,16.3457587 C6.22064913,18.9124238 10.0806754,19.6802524 13.4341657,18.2912053 C16.7876561,16.9021582 18.9741936,13.6297864 18.9741936,10 C18.9741223,5.04369841 14.9563016,1.02581994 10,1.02567742 Z M15.483871,9.16129033 L15.483871,8.12903227 L12.7741936,8.12903227 L12.7741936,7.22580645 L17.6774194,7.22580645 L17.6774194,9.16129033 L15.483871,9.16129033 Z M12.7729032,3.99909678 L13.3806452,3.99909678 C13.6303143,4.93924537 14.4738527,5.59932341 15.4464516,5.61561291 C15.7255878,5.61553652 16.001768,5.55845635 16.2580645,5.44787098 L16.2580645,6.20916129 C16.0103571,6.28413254 15.7529977,6.32238866 15.4941936,6.32270967 C14.1548387,6.32258064 13.0374194,5.32632258 12.7729032,3.99909678 Z M13.2903226,12.516129 L9.54838709,12.516129 L9.54838709,11.6129032 L13.2903226,11.6129032 L13.2903226,12.516129 Z M5.29032258,8.12903227 L2.58064516,8.12903227 L2.58064516,7.22580645 L7.48387098,7.22580645 L7.48387098,9.16129033 L5.29032258,9.16129033 L5.29032258,8.12903227 Z M4.51612902,6.31483871 C4.25399498,6.31465136 3.99325413,6.27671356 3.74193549,6.20219355 L3.74193549,5.44516129 C4.00205857,5.55499127 4.28151205,5.6117155 4.56387098,5.612 C5.54096265,5.60202485 6.39395361,4.94771453 6.6567742,4.00658064 L7.27225807,4.00658064 C7.01832864,5.33291393 5.86644144,6.29761945 4.51612902,6.31483871 Z" id="Shape"></path>
                </g>
                <path d="M10,20 L10,62" id="Line" stroke="#9300E9" stroke-linecap="square"></path>
            </g>
        </g>
    </g>
</svg>