<?xml version="1.0" encoding="UTF-8"?>
<svg width="24px" height="67px" viewBox="0 0 24 67" version="1.1" xmlns="http://www.w3.org/2000/svg" xmlns:xlink="http://www.w3.org/1999/xlink">
    <!-- Generator: Sketch 49.1 (51147) - http://www.bohemiancoding.com/sketch -->
    <title>Group 4</title>
    <desc>Created with Sketch.</desc>
    <defs>
        <filter x="-15.0%" y="-4.8%" width="130.0%" height="109.5%" filterUnits="objectBoundingBox" id="filter-1">
            <feOffset dx="0" dy="0" in="SourceAlpha" result="shadowOffsetOuter1"></feOffset>
            <feGaussianBlur stdDeviation="1" in="shadowOffsetOuter1" result="shadowBlurOuter1"></feGaussianBlur>
            <feColorMatrix values="0 0 0 0 0   0 0 0 0 0   0 0 0 0 0  0 0 0 0.5 0" type="matrix" in="shadowBlurOuter1" result="shadowMatrixOuter1"></feColorMatrix>
            <feMerge>
                <feMergeNode in="shadowMatrixOuter1"></feMergeNode>
                <feMergeNode in="SourceGraphic"></feMergeNode>
            </feMerge>
        </filter>
    </defs>
    <g id="Page-1" stroke="none" stroke-width="1" fill="none" fill-rule="evenodd">
        <g id="Group-13" transform="translate(-534.000000, 2.000000)">
            <g id="Group-4" filter="url(#filter-1)" transform="translate(536.000000, 0.000000)">
                <path d="M10.3792094,20.3469388 L10.3792094,62.3469388" id="Line" stroke="#959595" stroke-linecap="square"></path>
                <g id="emoji_line-(51)" fill="#959595" fill-rule="nonzero">
                    <path d="M10,20 C4.4771525,20 6.76353751e-16,15.5228475 0,10 C-6.76353751e-16,4.4771525 4.4771525,1.01453063e-15 10,0 C15.5228475,-1.01453063e-15 20,4.4771525 20,10 C20,12.6521649 18.9464316,15.195704 17.0710678,17.0710678 C15.195704,18.9464316 12.6521649,20 10,20 Z M10,1.02554838 C6.37014967,1.025444 3.09765975,3.21193276 1.70850384,6.56544723 C0.319347927,9.9189617 1.08710021,13.7790757 3.65375509,16.3458044 C6.22040997,18.912533 10.0805019,19.6803963 13.4340563,18.2913369 C16.7876107,16.9022774 18.9741936,13.6298503 18.9741936,10 C18.9741936,5.04364801 14.956352,1.0256909 10,1.02554838 Z M14.9677419,11.483871 C13.3999659,11.483871 12.1290323,10.2129374 12.1290323,8.6451613 C12.1290323,7.07738525 13.3999659,5.80645164 14.9677419,5.80645164 C16.535518,5.80645164 17.8064516,7.07738524 17.8064516,8.64516129 C17.8064516,9.39803391 17.5073741,10.1200708 16.9750128,10.6524322 C16.4426515,11.1847935 15.7206146,11.483871 14.9677419,11.483871 Z M14.9677419,6.06361291 C13.5420425,6.0638267 12.3864382,7.21971993 12.3865807,8.64541932 C12.3867232,10.0711187 13.5425587,11.2267809 14.9682581,11.2267096 C16.3939575,11.2266384 17.5496774,10.0708607 17.5496774,8.64516129 C17.5495349,7.21931935 16.3935839,6.06354164 14.9677419,6.06361291 Z M10,15.483871 C9.42989961,15.483871 8.96774193,15.0217133 8.96774193,14.4516129 C8.96774193,13.8815125 9.42989961,13.4193548 10,13.4193548 C10.5701004,13.4193548 11.0322581,13.8815125 11.0322581,14.4516129 C11.0322581,15.0217133 10.5701004,15.483871 10,15.483871 Z M5.03225807,11.483871 C3.46448201,11.483871 2.1935484,10.2129374 2.1935484,8.64516132 C2.19354839,7.07738526 3.464482,5.80645165 5.03225805,5.80645164 C6.60003411,5.80645163 7.87096772,7.07738523 7.87096773,8.64516129 C7.87096774,9.39803391 7.57189026,10.1200708 7.03952893,10.6524322 C6.5071676,11.1847935 5.78513068,11.483871 5.03225807,11.483871 Z M5.03225807,6.06361291 C3.60655868,6.0638267 2.45095429,7.21971993 2.45109681,8.64541932 C2.45123933,10.0711187 3.60707479,11.2267809 5.03277419,11.2267096 C6.4584736,11.2266384 7.61419354,10.0708607 7.61419355,8.64516129 C7.61405104,7.21931935 6.45810001,6.06354164 5.03225807,6.06361291 Z" id="Shape"></path>
                </g>
            </g>
        </g>
    </g>
</svg>