<?xml version="1.0" encoding="UTF-8"?>
<svg width="16px" height="51px" viewBox="0 0 16 51" version="1.1" xmlns="http://www.w3.org/2000/svg" xmlns:xlink="http://www.w3.org/1999/xlink">
    <!-- Generator: Sketch 49.3 (51167) - http://www.bohemiancoding.com/sketch -->
    <title>Group 4</title>
    <desc>Created with Sketch.</desc>
    <defs></defs>
    <g id="Page-1" stroke="none" stroke-width="1" fill="none" fill-rule="evenodd">
        <g id="Group-4">
            <path d="M8.3033675,16.4713314 L8.3033675,50.4713314" id="Line" stroke="#959595" stroke-linecap="square"></path>
            <g id="emoji_line-(51)" fill="#959595" fill-rule="nonzero">
                <path d="M8,16 C3.581722,16 5.41083001e-16,12.418278 0,8 C-5.41083001e-16,3.581722 3.581722,8.11624501e-16 8,0 C12.418278,-8.11624501e-16 16,3.581722 16,8 C16,10.1217319 15.1571453,12.1565632 13.6568542,13.6568542 C12.1565632,15.1571453 10.1217319,16 8,16 Z M8,0.820438703 C5.09611974,0.8203552 2.4781278,2.56954621 1.36680307,5.25235778 C0.255478341,7.93516936 0.869680171,11.0232605 2.92300408,13.0766435 C4.97632798,15.1300264 8.06440149,15.7443171 10.747245,14.6330695 C13.4300886,13.5218219 15.1793548,10.9038803 15.1793548,8 C15.1793548,4.03491841 11.9650816,0.820552722 8,0.820438703 Z M11.9741935,9.18709678 C10.7199727,9.18709677 9.70322583,8.17034988 9.70322583,6.91612904 C9.70322583,5.6619082 10.7199727,4.64516132 11.9741936,4.64516131 C13.2284144,4.64516131 14.2451613,5.66190819 14.2451613,6.91612903 C14.2451613,7.51842713 14.0058993,8.09605666 13.5800102,8.52194573 C13.1541212,8.9478348 12.5764916,9.18709679 11.9741935,9.18709678 Z M11.9741935,4.85089033 C10.833634,4.85106136 9.90915053,5.77577594 9.90926454,6.91633546 C9.90937856,8.05689498 10.8340469,8.98142471 11.9746064,8.98136771 C13.115166,8.98131071 14.0397419,8.05668856 14.0397419,6.91612903 C14.0396279,5.77545548 13.1148671,4.85083331 11.9741935,4.85089033 Z M8,12.3870968 C7.54391969,12.3870968 7.17419355,12.0173706 7.17419355,11.5612903 C7.17419355,11.10521 7.54391969,10.7354839 8,10.7354839 C8.45608031,10.7354839 8.82580645,11.10521 8.82580645,11.5612903 C8.82580645,12.0173706 8.45608031,12.3870968 8,12.3870968 Z M4.02580645,9.18709678 C2.77158561,9.18709678 1.75483872,8.1703499 1.75483872,6.91612905 C1.75483872,5.66190821 2.7715856,4.64516132 4.02580644,4.64516131 C5.28002729,4.64516131 6.29677418,5.66190819 6.29677419,6.91612903 C6.29677419,7.51842713 6.05751221,8.09605666 5.63162314,8.52194573 C5.20573408,8.94783479 4.62810455,9.18709678 4.02580645,9.18709678 Z M4.02580645,4.85089033 C2.88524694,4.85106136 1.96076343,5.77577594 1.96087745,6.91633546 C1.96099146,8.05689498 2.88565983,8.98142471 4.02621935,8.98136771 C5.16677888,8.98131071 6.09135483,8.05668856 6.09135484,6.91612903 C6.09124083,5.77545548 5.16648001,4.85083331 4.02580645,4.85089033 Z" id="Shape"></path>
            </g>
        </g>
    </g>
</svg>