<?xml version="1.0" standalone="no"?><!DOCTYPE svg PUBLIC "-//W3C//DTD SVG 1.1//EN" "http://www.w3.org/Graphics/SVG/1.1/DTD/svg11.dtd"><svg t="1522076018201" class="icon" style="" viewBox="0 0 1024 1024" version="1.1" xmlns="http://www.w3.org/2000/svg" p-id="6141" xmlns:xlink="http://www.w3.org/1999/xlink" width="200" height="200"><defs><style type="text/css"></style></defs><path d="M512 1024A512 512 0 1 1 1024 512 512 512 0 0 1 512 1024z m0-971.491923A459.491923 459.491923 0 1 0 971.47871 512 459.491923 459.491923 0 0 0 512 52.508077zM766.348387 587.974194a145.341935 145.341935 0 1 1 145.341936-145.341936 145.341935 145.341935 0 0 1-145.341936 145.341936z m0-277.517213A132.175277 132.175277 0 1 0 898.543484 442.632258 132.18849 132.18849 0 0 0 766.348387 310.456981zM512 792.774194a52.851613 52.851613 0 1 1 52.851613-52.851613 52.851613 52.851613 0 0 1-52.851613 52.851613zM257.651613 587.974194a145.341935 145.341935 0 1 1 145.341935-145.341936 145.341935 145.341935 0 0 1-145.341935 145.341936z m0-277.517213A132.175277 132.175277 0 1 0 389.84671 442.632258 132.18849 132.18849 0 0 0 257.651613 310.456981z" fill="" p-id="6142"></path></svg>