<?xml version="1.0" standalone="no"?><!DOCTYPE svg PUBLIC "-//W3C//DTD SVG 1.1//EN" "http://www.w3.org/Graphics/SVG/1.1/DTD/svg11.dtd"><svg t="1522076004877" class="icon" style="" viewBox="0 0 1024 1024" version="1.1" xmlns="http://www.w3.org/2000/svg" p-id="5913" xmlns:xlink="http://www.w3.org/1999/xlink" width="200" height="200"><defs><style type="text/css"></style></defs><path d="M512 1024A512 512 0 1 1 1024 512 512 512 0 0 1 512 1024z m0-971.485316A459.485316 459.485316 0 1 0 971.47871 512 459.491923 459.491923 0 0 0 512 52.514684zM512 865.445161a330.322581 330.322581 0 0 1-330.322581-330.32258c0-2.213161 0.132129-4.399897 0.198194-6.606452h660.248774c0.066065 2.206555 0.198194 4.39329 0.198194 6.606452a330.322581 330.322581 0 0 1-330.322581 330.32258z m0-36.335484a293.167897 293.167897 0 0 0 206.517677-84.780593 265.090477 265.090477 0 0 0-416.668903-3.719432A293.002735 293.002735 0 0 0 512 829.109677zM219.268129 561.548387a291.734297 291.734297 0 0 0 60.382968 153.580181 298.050065 298.050065 0 0 1 461.460645 4.122426A292.665806 292.665806 0 0 0 804.797935 561.548387H219.268129zM693.677419 369.96129h112.309678v99.096775h-112.309678V369.96129z m-475.664516 0h112.309678v99.096775H218.012903V369.96129z" fill="" p-id="5914"></path></svg>