<?xml version="1.0" encoding="UTF-8"?>
<svg width="22px" height="65px" viewBox="0 0 22 65" version="1.1" xmlns="http://www.w3.org/2000/svg" xmlns:xlink="http://www.w3.org/1999/xlink">
    <!-- Generator: Sketch 49.1 (51147) - http://www.bohemiancoding.com/sketch -->
    <title>Group 4</title>
    <desc>Created with Sketch.</desc>
    <defs>
        <filter x="-5.0%" y="-3.2%" width="120.0%" height="106.3%" filterUnits="objectBoundingBox" id="filter-1">
            <feOffset dx="1" dy="0" in="SourceAlpha" result="shadowOffsetOuter1"></feOffset>
            <feGaussianBlur stdDeviation="0.5" in="shadowOffsetOuter1" result="shadowBlurOuter1"></feGaussianBlur>
            <feColorMatrix values="0 0 0 0 0   0 0 0 0 0   0 0 0 0 0  0 0 0 0.5 0" type="matrix" in="shadowBlurOuter1" result="shadowMatrixOuter1"></feColorMatrix>
            <feMerge>
                <feMergeNode in="shadowMatrixOuter1"></feMergeNode>
                <feMergeNode in="SourceGraphic"></feMergeNode>
            </feMerge>
        </filter>
    </defs>
    <g id="Page-1" stroke="none" stroke-width="1" fill="none" fill-rule="evenodd">
        <g id="Group-13" transform="translate(0.000000, 1.000000)">
            <g id="Group-4" filter="url(#filter-1)">
                <path d="M10.3250366,20.3469388 L10.3250366,62.3469388" id="Line" stroke="#62BE1F" stroke-linecap="square"></path>
                <g id="emoji_line-(39)" fill="#62BE1F" fill-rule="nonzero">
                    <path d="M10,20 C4.4771525,20 6.76353751e-16,15.5228475 0,10 C-6.76353751e-16,4.4771525 4.4771525,1.01453063e-15 10,0 C15.5228475,-1.01453063e-15 20,4.4771525 20,10 C20,12.6521649 18.9464316,15.195704 17.0710678,17.0710678 C15.195704,18.9464316 12.6521649,20 10,20 Z M10,1.02567742 C6.3702136,1.02562524 3.09781034,3.21211565 1.70871506,6.56558603 C0.319619784,9.91905641 1.08739288,13.7790937 3.65402101,16.3457587 C6.22064913,18.9124238 10.0806754,19.6802524 13.4341657,18.2912053 C16.7876561,16.9021582 18.9741936,13.6297864 18.9741936,10 C18.9741223,5.04369841 14.9563016,1.02581994 10,1.02567742 Z M10,16.9032258 C6.43687259,16.9032258 3.5483871,14.0147403 3.54838709,10.4516129 C3.54838709,10.4083871 3.55096773,10.3656774 3.55225807,10.3225806 L16.4477419,10.3225806 C16.4490323,10.3656774 16.4516129,10.4083871 16.4516129,10.4516129 C16.4516129,14.0147403 13.5631274,16.9032258 10,16.9032258 Z M10,16.1935484 C11.5102782,16.1951378 12.9600245,15.5999812 14.0335484,14.5376774 C13.0630597,13.2811834 11.5697406,12.5394104 9.9821561,12.5252387 C8.39457158,12.511067 6.88824847,13.2260634 5.89548387,14.4650323 C6.97413288,15.5717896 8.45455744,16.1952341 10,16.1935484 Z M4.28258064,10.9677419 C4.37881577,12.0602788 4.78831992,13.1018261 5.46193549,13.9673548 C6.57958259,12.6250828 8.24087998,11.8555971 9.98747259,11.8712001 C11.7340652,11.8868032 13.3813503,12.6858459 14.4748387,14.047871 C15.1852236,13.1669292 15.6181304,12.0949459 15.7187097,10.9677419 L4.28258064,10.9677419 Z M13.5483871,7.22580645 L15.7419355,7.22580645 L15.7419355,9.16129033 L13.5483871,9.16129033 L13.5483871,7.22580645 Z M4.25806451,7.22580645 L6.45161291,7.22580645 L6.45161291,9.16129033 L4.25806451,9.16129033 L4.25806451,7.22580645 Z" id="Shape"></path>
                </g>
            </g>
        </g>
    </g>
</svg>