<?xml version="1.0" encoding="UTF-8"?>
<svg width="24px" height="67px" viewBox="0 0 24 67" version="1.1" xmlns="http://www.w3.org/2000/svg" xmlns:xlink="http://www.w3.org/1999/xlink">
    <!-- Generator: Sketch 49.1 (51147) - http://www.bohemiancoding.com/sketch -->
    <title>Group 4</title>
    <desc>Created with Sketch.</desc>
    <defs>
        <filter x="-15.0%" y="-4.8%" width="130.0%" height="109.5%" filterUnits="objectBoundingBox" id="filter-1">
            <feOffset dx="0" dy="0" in="SourceAlpha" result="shadowOffsetOuter1"></feOffset>
            <feGaussianBlur stdDeviation="1" in="shadowOffsetOuter1" result="shadowBlurOuter1"></feGaussianBlur>
            <feColorMatrix values="0 0 0 0 0   0 0 0 0 0   0 0 0 0 0  0 0 0 0.5 0" type="matrix" in="shadowBlurOuter1" result="shadowMatrixOuter1"></feColorMatrix>
            <feMerge>
                <feMergeNode in="shadowMatrixOuter1"></feMergeNode>
                <feMergeNode in="SourceGraphic"></feMergeNode>
            </feMerge>
        </filter>
    </defs>
    <g id="Page-1" stroke="none" stroke-width="1" fill="none" fill-rule="evenodd">
        <g id="Group-13" transform="translate(-162.000000, 2.000000)">
            <g id="Group-4" filter="url(#filter-1)" transform="translate(164.000000, 0.000000)">
                <path d="M10.3250366,20.3469388 L10.3250366,62.3469388" id="Line" stroke="#3661FF" stroke-linecap="square"></path>
                <g id="emoji_line-(30)" fill="#3661FF" fill-rule="nonzero">
                    <path d="M10,20 C4.4771525,20 6.76353751e-16,15.5228475 0,10 C-6.76353751e-16,4.4771525 4.4771525,1.01453063e-15 10,0 C15.5228475,-1.01453063e-15 20,4.4771525 20,10 C20,12.6521649 18.9464316,15.195704 17.0710678,17.0710678 C15.195704,18.9464316 12.6521649,20 10,20 Z M10,1.02567742 C6.3702136,1.02562524 3.09781034,3.21211565 1.70871506,6.56558603 C0.319619784,9.91905641 1.08739288,13.7790937 3.65402101,16.3457587 C6.22064913,18.9124238 10.0806754,19.6802524 13.4341657,18.2912053 C16.7876561,16.9021582 18.9741936,13.6297864 18.9741936,10 C18.9741223,5.04369841 14.9563016,1.02581994 10,1.02567742 Z M12.7729032,3.96683871 L13.3806452,3.96683871 C13.6303042,4.90701309 14.4738313,5.567135 15.4464516,5.58348387 C15.7255874,5.58340385 16.0017669,5.52632383 16.2580645,5.41574193 L16.2580645,6.17703227 C16.0103571,6.25200351 15.7529977,6.29025964 15.4941936,6.29058064 C14.1548387,6.29070967 13.0374194,5.29406451 12.7729032,3.96683871 Z M12.156129,12.387871 C11.9010531,11.4344756 11.0372504,10.7713975 10.0503226,10.7713975 C9.06339477,10.7713975 8.19959206,11.4344756 7.94451613,12.387871 L7.22709678,12.387871 C7.46645195,11.0432852 8.63556643,10.06391 10.0012903,10.06391 C11.3670142,10.06391 12.5361287,11.0432852 12.7754839,12.387871 L12.156129,12.387871 Z M4.51612902,6.28258064 C4.25398872,6.2823514 3.99324774,6.24437013 3.74193549,6.16980645 L3.74193549,5.41329033 C4.00202983,5.52322799 4.2814966,5.57999879 4.56387098,5.58025807 C5.54096265,5.57028292 6.39395361,4.91597259 6.6567742,3.97483871 L7.27225807,3.97483871 C7.01811312,5.30096714 5.8662814,6.2654105 4.51612902,6.28258064 Z M6.45161291,9.16129033 L4.25806451,9.16129033 L4.25806451,7.22580645 L6.45161291,7.22580645 L6.45161291,9.16129033 Z M15.7419355,9.16129033 L13.5483871,9.16129033 L13.5483871,7.22580645 L15.7419355,7.22580645 L15.7419355,9.16129033 Z" id="Shape"></path>
                </g>
            </g>
        </g>
    </g>
</svg>