<?xml version="1.0" standalone="no"?><!DOCTYPE svg PUBLIC "-//W3C//DTD SVG 1.1//EN" "http://www.w3.org/Graphics/SVG/1.1/DTD/svg11.dtd"><svg t="1521724631908" class="icon" style="" viewBox="0 0 1024 1024" version="1.1" xmlns="http://www.w3.org/2000/svg" p-id="1929" xmlns:xlink="http://www.w3.org/1999/xlink" width="200" height="200"><defs><style type="text/css"></style></defs><path d="M688.579263 705.773369a20.409106 20.409106 0 0 1-14.463404-5.981538L324.425232 350.911098c-8.005759-7.988353-8.021118-20.953813-0.033788-28.960596 7.988353-8.005759 20.953813-8.021118 28.960597-0.033789l349.690626 348.881758c8.005759 7.987329 8.021118 20.953813 0.032765 28.959572a20.411154 20.411154 0 0 1-14.496169 6.015326z" fill="#000" p-id="1930"></path><path d="M338.888636 705.773369a20.416273 20.416273 0 0 1-14.497192-6.014302c-7.987329-8.005759-7.972995-20.972243 0.033788-28.959573l349.690627-348.881757c8.004735-7.987329 20.972243-7.972995 28.959573 0.033788 7.988353 8.006783 7.972995 20.972243-0.032765 28.960597L353.352041 699.791831a20.416273 20.416273 0 0 1-14.463405 5.981538z" fill="#000" p-id="1931"></path></svg>