<?xml version="1.0" encoding="UTF-8"?>
<svg width="16px" height="51px" viewBox="0 0 16 51" version="1.1" xmlns="http://www.w3.org/2000/svg" xmlns:xlink="http://www.w3.org/1999/xlink">
    <!-- Generator: Sketch 49.3 (51167) - http://www.bohemiancoding.com/sketch -->
    <title>Group 4</title>
    <desc>Created with Sketch.</desc>
    <defs></defs>
    <g id="Page-1" stroke="none" stroke-width="1" fill="none" fill-rule="evenodd">
        <g id="Group-4">
            <path d="M8.26002928,16.4713314 L8.26002928,50.4713314" id="Line" stroke="#62BE1F" stroke-linecap="square"></path>
            <g id="emoji_line-(39)" fill="#62BE1F" fill-rule="nonzero">
                <path d="M8,16.1904762 C3.581722,16.1904762 5.41083001e-16,12.5661146 0,8.0952381 C-5.41083001e-16,3.62436155 3.581722,8.21286698e-16 8,0 C12.418278,-8.21286698e-16 16,3.62436155 16,8.0952381 C16,10.2422287 15.1571453,12.3012842 13.6568542,13.8194358 C12.1565632,15.3375875 10.1217319,16.1904762 8,16.1904762 Z M8,0.830310294 C5.09617088,0.830268049 2.47824827,2.6002841 1.36697205,5.31499821 C0.255695827,8.02971233 0.869914307,11.1545044 2.92321681,13.2322809 C4.97651931,15.3100573 8.06454031,15.9316329 10.7473326,14.8071662 C13.4301249,13.6826995 15.1793548,11.0336366 15.1793548,8.0952381 C15.1792978,4.08299395 11.9650413,0.830425668 8,0.830310294 Z M8,13.6835637 C5.14949807,13.6835637 2.83870968,11.345266 2.83870967,8.4608295 C2.83870967,8.42583718 2.84077419,8.39126267 2.84180645,8.35637481 L13.1581935,8.35637481 C13.1592258,8.39126267 13.1612903,8.42583717 13.1612903,8.4608295 C13.1612903,11.345266 10.8505019,13.6835637 8,13.6835637 Z M8,13.109063 C9.2082226,13.1103496 10.3680196,12.6285562 11.2268387,11.768596 C10.4504478,10.7514342 9.2557925,10.1509513 7.98572488,10.139479 C6.71565726,10.1280066 5.51059878,10.7068132 4.71638709,11.709788 C5.5793063,12.6057345 6.76364595,13.1104276 8,13.109063 Z M3.42606452,8.87864823 C3.50305262,9.7630828 3.83065594,10.6062402 4.36954839,11.3069063 C5.26366607,10.2203051 6.59270398,9.5973881 7.98997807,9.61001915 C9.38725217,9.6226502 10.7050802,10.2694943 11.579871,11.372086 C12.1481789,10.6589427 12.4945043,9.79114671 12.5749677,8.87864823 L3.42606452,8.87864823 Z M10.8387097,5.84946236 L12.5935484,5.84946236 L12.5935484,7.41628265 L10.8387097,7.41628265 L10.8387097,5.84946236 Z M3.40645161,5.84946236 L5.16129033,5.84946236 L5.16129033,7.41628265 L3.40645161,7.41628265 L3.40645161,5.84946236 Z" id="Shape"></path>
            </g>
        </g>
    </g>
</svg>