<?xml version="1.0" encoding="UTF-8"?>
<svg width="16px" height="51px" viewBox="0 0 16 51" version="1.1" xmlns="http://www.w3.org/2000/svg" xmlns:xlink="http://www.w3.org/1999/xlink">
    <!-- Generator: Sketch 49.3 (51167) - http://www.bohemiancoding.com/sketch -->
    <title>Group 4</title>
    <desc>Created with Sketch.</desc>
    <defs></defs>
    <g id="Page-1" stroke="none" stroke-width="1" fill="none" fill-rule="evenodd">
        <g id="Group-4">
            <polyline id="Line" stroke="#000000" stroke-linecap="square" points="8 20.7446892 8 51 8 16.4516129"></polyline>
            <g id="emoji_line-(57)" fill="#000000" fill-rule="nonzero">
                <path d="M8,16.4516129 C3.581722,16.4516129 5.41083001e-16,12.7687939 0,8.22580645 C-5.41083001e-16,3.68281899 3.581722,8.34533257e-16 8,0 C12.418278,-8.34533257e-16 16,3.68281899 16,8.22580645 C16,10.407426 15.1571453,12.499692 13.6568542,14.04233 C12.1565632,15.5849679 10.1217319,16.4516129 8,16.4516129 Z M8,0.843702395 C4.0348948,0.843702395 0.820541938,4.14878296 0.820541938,8.22580645 C0.820541938,12.3028299 4.0348948,15.6079105 8,15.6079105 C11.9651052,15.6079105 15.1794581,12.3028299 15.1794581,8.22580645 C15.1794581,6.26795073 14.423053,4.39028367 13.0766435,3.00587061 C11.7302339,1.62145755 9.90411067,0.843702395 8,0.843702395 Z M10.8387097,5.94380853 L12.5935484,5.94380853 L12.5935484,7.53590011 L10.8387097,7.53590011 L10.8387097,5.94380853 Z M5.41935484,9.65868887 L10.5806452,9.65868887 L10.5806452,10.1893861 L5.41935484,10.1893861 L5.41935484,9.65868887 Z M3.40645161,5.94380853 L5.16129033,5.94380853 L5.16129033,7.53590011 L3.40645161,7.53590011 L3.40645161,5.94380853 Z" id="Shape"></path>
            </g>
        </g>
    </g>
</svg>