<?xml version="1.0" encoding="UTF-8"?>
<svg width="16px" height="51px" viewBox="0 0 16 51" version="1.1" xmlns="http://www.w3.org/2000/svg" xmlns:xlink="http://www.w3.org/1999/xlink">
    <!-- Generator: Sketch 49.3 (51167) - http://www.bohemiancoding.com/sketch -->
    <title>Group 4</title>
    <desc>Created with Sketch.</desc>
    <defs></defs>
    <g id="Page-1" stroke="none" stroke-width="1" fill="none" fill-rule="evenodd">
        <g id="Group-4">
            <path d="M8.26002928,16.4713314 L8.26002928,50.4713314" id="Line" stroke="#3661FF" stroke-linecap="square"></path>
            <g id="emoji_line-(30)" fill="#3661FF" fill-rule="nonzero">
                <path d="M8,16.1904762 C3.581722,16.1904762 5.41083001e-16,12.5661146 0,8.0952381 C-5.41083001e-16,3.62436155 3.581722,8.21286698e-16 8,0 C12.418278,-8.21286698e-16 16,3.62436155 16,8.0952381 C16,10.2422287 15.1571453,12.3012842 13.6568542,13.8194358 C12.1565632,15.3375875 10.1217319,16.1904762 8,16.1904762 Z M8,0.830310294 C5.09617088,0.830268049 2.47824827,2.6002841 1.36697205,5.31499821 C0.255695827,8.02971233 0.869914307,11.1545044 2.92321681,13.2322809 C4.97651931,15.3100573 8.06454031,15.9316329 10.7473326,14.8071662 C13.4301249,13.6826995 15.1793548,11.0336366 15.1793548,8.0952381 C15.1792978,4.08299395 11.9650413,0.830425668 8,0.830310294 Z M10.2183226,3.21125039 L10.7045161,3.21125039 C10.9042433,3.97234393 11.5790651,4.50672833 12.3571613,4.51996313 C12.58047,4.51989835 12.8014135,4.47369072 13.0064516,4.38417204 L13.0064516,5.00045469 C12.8082856,5.0611457 12.6023981,5.09211494 12.3953548,5.09237481 C11.323871,5.09247926 10.4299355,4.28567127 10.2183226,3.21125039 Z M9.72490322,10.0282765 C9.52084248,9.25648023 8.82980031,8.7197027 8.04025806,8.7197027 C7.25071581,8.7197027 6.55967365,9.25648023 6.35561291,10.0282765 L5.78167742,10.0282765 C5.97316156,8.93980232 6.90845314,8.14697475 8.00103226,8.14697475 C9.09361137,8.14697475 10.028903,8.93980232 10.2203871,10.0282765 L9.72490322,10.0282765 Z M3.61290322,5.08589862 C3.40319098,5.08571304 3.19459819,5.05496629 2.99354839,4.99460522 L2.99354839,4.38218741 C3.20162386,4.47118457 3.42519728,4.51714188 3.65109678,4.51735177 C4.43277012,4.50927665 5.11516289,3.97959686 5.32541936,3.21772658 L5.81780645,3.21772658 C5.6144905,4.29125911 4.69302512,5.07199898 3.61290322,5.08589862 Z M5.16129033,7.41628265 L3.40645161,7.41628265 L3.40645161,5.84946236 L5.16129033,5.84946236 L5.16129033,7.41628265 Z M12.5935484,7.41628265 L10.8387097,7.41628265 L10.8387097,5.84946236 L12.5935484,5.84946236 L12.5935484,7.41628265 Z" id="Shape"></path>
            </g>
        </g>
    </g>
</svg>